/* XPM */
static char *xpm_[] = {
/* columns rows colors chars-per-pixel */
"32 48 12 1 ",
"  c #141412",
". c #191C1E",
"X c #281818",
"o c #332520",
"O c #3D3122",
"+ c #2B3037",
"@ c #523D2A",
"# c #343C45",
"$ c #394554",
"% c #56687E",
"& c #607897",
"* c #7998BF",
/* pixels */
"                                ",
"                                ",
"           &********&           ",
"         **************         ",
"       ****&$++++++$&****       ",
"      ***&$++++++++++$&***      ",
".....&**$+++++....+++++$**&.... ",
"....&&&$+++.        .+++$&&&... ",
"...&&&$++.            .++$&&&.. ",
"..$&&$++.   XXX  XXX   .++$&&$. ",
"  &&&++   XXXooXXooXXX   ++&&&  ",
"&&&&++.  XooXooXXooXooX  .++&&&&",
"&&&&+.  XoooXooXXooXoooX  .+&&&&",
"$$$$+  XXoooXOOXXOOXoooXX  +$$$$",
"$$$$. XXXOOOXOOooOOXOOOXXX .$$$$",
"++++  ooXoooX@@oo@@XoooXoo  ++++",
"     XooXOOOX@@oo@@XOOOXooX     ",
"##.. oooXOOOX@@oo@@XOOOXooo ..##",
"##.. oooX@@@o@@oo@@o@@@Xooo ..##",
"$$..XOOOX@@@o@@oo@@o@@@XOOOX..$$",
"%%..XOOOX@@@o@@oo@@o@@@XoooX..%%",
"%%..X@@@X@@@o@@oo@@o@@@X@@@X..%%",
"%%..X@@@o@@@o@@oo@@o@@@o@@@X..%%",
"%%..X@@@o@@@o@@oo@@o@@@o@@@X..%%",
"%%..X@@@o@@@o@@oo@@o@@@o@@@X..%%",
"%%..X@@@o@@@o@@oo@@o@@@o@@@X..%%",
"%%..X@@@o@@@o@@oo@@o@@@o@@@X..%%",
"$$..X@@@o@@@o@@oo@@o@@@o@@@X..$$",
"%%..X@@@oOOOo@@oo@@oOOOo@@@X..%%",
"$$..X@@@o@@@o@@oo@@o@@@o@@@X..$$",
"%%..XOOOoOOOoOOooOOoOOOoOOOX..%%",
"$$..X@@@oOOOo@@oo@@oOOOo@@@X..$$",
"$$..XOOOoOOOoOOooOOoOOOoOOOX..$$",
"$$..XOOOoOOOoOOooOOoOOOoOOOX..$$",
"$$..XOOOoOOOoOOooOOoOOOoOOOX..$$",
"$$..XOOOoOOOoOOooOOoOOOoOOOX..$$",
"$$..XOOOoOOOoOOooOOoOOOoOOOX..$$",
"$$..XOOOoOOOoOOooOOoOOOoOOOX..$$",
"$$..XOOOoOOOoOOooOOoOOOoOOOX..$$",
"$$..XOOOoOOOoOOooOOoOOOoOOOX..$$",
"$$..XOOOoOOOoOOooOOoOOOoOOOX..$$",
"$$..XOOOXOOOXOOooOOXOOOXOOOX..$$",
"$$..XoooXOOOXOOooOOXOOOXoooX..$$",
"$$..XoooXoooXOOXXOOXoooXoooX..$$",
"$$..XoooXooo.ooXXoo.oooXoooX..$$",
"$$..XoooXooo.oo..oo.oooXoooX..$$",
"....Xooo.ooo.oo..oo.ooo.oooX....",
"................................"
};
