/* XPM */
static char *f8dfdcbd9ad44500d599affdad227c99d2gwN0CFdsVAiLsK[] = {
/* columns rows colors chars-per-pixel */
"18 27 6 1 ",
"  c None",
". c #623E19",
"X c white",
"o c #2A1509",
"O c #FFD967",
"+ c #8A6D37",
/* pixels */
"      ......      ",
"      ......      ",
"      ......      ",
"   ...XXXXXXooo   ",
"   ...XXXXXXooo   ",
"   ...XXXXXXooo   ",
"...XXXXXXOOO+++ooo",
"...XXXXXXOOO+++ooo",
"...XXXXXXOOO+++ooo",
"...XXXOOOooo+++ooo",
"...XXXOOOooo+++ooo",
"...XXXOOOooo+++ooo",
"...XXXoooooo+++ooo",
"...XXXoooooo+++ooo",
"...XXXoooooo+++ooo",
"...XXXooo...+++ooo",
"...XXXooo...+++ooo",
"...XXXooo...+++ooo",
"...XXXOOOOOO+++ooo",
"...XXXOOOOOO+++ooo",
"...XXXOOOOOO+++ooo",
"   ...OOOOOOooo   ",
"   ...OOOOOOooo   ",
"   ...OOOOOOooo   ",
"      oooooo      ",
"      oooooo      ",
"      oooooo      "
};
