/* XPM */
static char *xpm_[] = {
/* columns rows colors chars-per-pixel */
"32 48 8 1 ",
"  c #141412",
". c #191C1E",
"X c #2B3037",
"o c #343C45",
"O c #394554",
"+ c #56687E",
"@ c #607897",
"# c #7998BF",
/* pixels */
"                                ",
"                                ",
"           @########@           ",
"         ##############         ",
"       ####@OXXXXXXO@####       ",
"      ###@OXXXXXXXXXXO@###      ",
".....@##OXXXXX....XXXXXO##@.... ",
"....@@@OXXX.        .XXXO@@@... ",
"...@@@OXX.            .XXO@@@.. ",
"..O@@OXX.              .XXO@@O. ",
"  @@@XX                  XX@@@  ",
"@@@@XX.                  .XX@@@@",
"@@@@X.                    .X@@@@",
"OOOOX                      XOOOO",
"OOOO.                      .OOOO",
"XXXX                        XXXX",
"                                ",
"oo..                        ..oo",
"oo..                        ..oo",
"OO..                        ..OO",
"++..                        ..++",
"++..                        ..++",
"++..                        ..++",
"++..                        ..++",
"++..                        ..++",
"++..                        ..++",
"++..                        ..++",
"OO..                        ..OO",
"++..                        ..++",
"OO..                        ..OO",
"++..                        ..++",
"OO..                        ..OO",
"OO..                        ..OO",
"OO..                        ..OO",
"OO..                        ..OO",
"OO..                        ..OO",
"OO..                        ..OO",
"OO..                        ..OO",
"OO..                        ..OO",
"OO..                        ..OO",
"OO..                        ..OO",
"OO..                        ..OO",
"OO..                        ..OO",
"OO..                        ..OO",
"OO..                        ..OO",
"OO..                        ..OO",
"....                        ....",
"....                        ...."
};
