/* XPM */
static char *_0842db239184183d54ae90c13667b60wd0CMsKVOiSG7O32[] = {
/* columns rows colors chars-per-pixel */
"38 60 14 1 ",
"  c None",
". c #252716",
"X c #5F5625",
"o c #928230",
"O c #141412",
"+ c #373A20",
"@ c #0C98D6",
"# c #331E32",
"$ c #1C3845",
"% c #5F2E5C",
"& c #932D8B",
"* c #47280D",
"= c #B56C30",
"- c #F09A53",
/* pixels */
"              ..............          ",
"              ..............          ",
"          ....XXooooooooXXXXOO        ",
"          ....XXooooooooXXXXOO        ",
"        ..XXooooooooooooooooXXOO      ",
"        ..XXooooooooooooooooXXOO      ",
"      OOXXXXooooooooooooooooooXXOO    ",
"      OOXXXXooooooooooooooooooXXOO    ",
"    OO++++++XXooooooXXOOOOXXooooOO    ",
"    OO++++++XXooooooXXOOOOXXooooOO    ",
"    OO++++++++XXooOOOOOOOOOOXXooOO    ",
"    OO++++++++XXooOOOOOOOOOOXXooOO    ",
"  OO++++++++++ooOOOOOOOOOOOOOOooOO    ",
"  OO++++++++++ooOOOOOOOOOOOOOOooOO    ",
"  OO++++++++XXooOOOOOOOOOOOOOOooOO    ",
"  OO++++++++XXooOOOOOOOOOOOOOOooOO    ",
"OO++++++++++ooOOOOOO@@OOOO@@OOXXOO    ",
"OO++++++++++ooOOOOOO@@OOOO@@OOXXOO    ",
"OO++XXXXXX++oo##OOOO$$OOOO$$OOXXOO    ",
"OO++XXXXXX++oo##OOOO$$OOOO$$OOXXOO    ",
"OOOO++XXXXXXoo##OOOOOOOOOOOOOO++OO    ",
"OOOO++XXXXXXoo##OOOOOOOOOOOOOO++OO    ",
"  OOOOOO++++XX##%%##OOOOOOOOOO##OO    ",
"  OOOOOO++++XX##%%##OOOOOOOOOO##OO    ",
"  OO++++++++XXXX%%%%%%&&&&&&&&%%OO    ",
"  OO++++++++XXXX%%%%%%&&&&&&&&%%OO    ",
"  ..oooooo++++XXoo%%%%&&&&&&&&%%OOOO  ",
"  ..oooooo++++XXoo%%%%&&&&&&&&%%OOOO  ",
"..ooooooooooXXXXooooooooXXXXooooOOOO  ",
"..ooooooooooXXXXooooooooXXXXooooOOOO  ",
"..ooooooooooXXXXXXooooooooooooooOOOO  ",
"..ooooooooooXXXXXXooooooooooooooOOOO  ",
"..XXooooooXX++++++ooooooooooooooOOOO  ",
"..XXooooooXX++++++ooooooooooooooOOOO  ",
"  ........OO++++++XXooooooooooXXOO    ",
"  ........OO++++++XXooooooooooXXOO    ",
"      OOOOOO++++++++OOOOOOOOOOOO      ",
"      OOOOOO++++++++OOOOOOOOOOOO      ",
"        ****==**======----====OO      ",
"        ****==**======----====OO      ",
"        ****==**====--------==OO      ",
"        ****==**====--------==OO      ",
"      ..XXXXXXXXXXXXXX----==++++OO    ",
"      ..XXXXXXXXXXXXXX----==++++OO    ",
"      ..ooooooooooooXXOOOOXXXXXXOO    ",
"      ..ooooooooooooXXOOOOXXXXXXOO    ",
"    ..XXoooooooooooo++OOOOXXXXXXXXOO  ",
"    ..XXoooooooooooo++OOOOXXXXXXXXOO  ",
"    ..oooooooooooo++OOOOOOXXXXXXXXOO  ",
"    ..oooooooooooo++OOOOOOXXXXXXXXOO  ",
"  OOOOooooooooooooOO  OOOOOOXXXXXXOO  ",
"  OOOOooooooooooooOO  OOOOOOXXXXXXOO  ",
"  OOOOOOOOOOOOOOOOOO    OOOOOOOOOOOO  ",
"  OOOOOOOOOOOOOOOOOO    OOOOOOOOOOOO  ",
"  OO======OOOO            OO******OO  ",
"  OO======OOOO            OO******OO  ",
"OOOO******OO              OOOOOOOOOOOO",
"OOOO******OO              OOOOOOOOOOOO",
"OO------OOOO              OO**======OO",
"OO------OOOO              OO**======OO"
};
