/* XPM */
static char *dba0b4e35ab947a8b6ca818ea5d8cdc7DCd74pFX9K1cjnCP[] = {
/* columns rows colors chars-per-pixel */
"24 38 14 1 ",
"  c None",
". c #252716",
"X c #5F5625",
"o c #928230",
"O c #141412",
"+ c #373A20",
"@ c #0C98D6",
"# c #331E32",
"$ c #1C3845",
"% c #5F2E5C",
"& c #932D8B",
"* c #47280D",
"= c #B56C30",
"- c #F09A53",
/* pixels */
"         .........      ",
"      ...XoooooXXXO     ",
"      ...XoooooXXXO     ",
"     .XXooooooooooXO    ",
"    OXXXoooooooooooXO   ",
"   O++++XooooXOOXXooO   ",
"   O+++++XoOOOOOOOXoO   ",
"   O+++++XoOOOOOOOXoO   ",
" OO++++++oOOOOOOOOOoO   ",
" OO+++++XoOOOOOOOOOoO   ",
"O+++++++oOOOO@OO@@OXO   ",
"O++XXX++o#OOO$OO$$OXO   ",
"O++XXX++o#OOO$OO$$OXO   ",
"OOO+XXXXo#OOOOOOOOO+O   ",
" OOOO+++X#%##OOOOOO#O   ",
" OO+++++XX%%%%&&&&&%O   ",
" ..ooo+++Xo%%%&&&&&%OOO ",
" ..ooo+++Xo%%%&&&&&%OOO ",
".oooooooXXoooooXXXooOOO ",
".oooooooXXXoooooooooOOO ",
".XXoooXX+++oooooooooOOO ",
".XXoooXX+++oooooooooOOO ",
" .....OO+++XXooooooXO   ",
"    OOOO+++++OOOOOOO    ",
"     ***=*====--===O    ",
"     ***=*===-----=O    ",
"     ***=*===-----=O    ",
"    .XXXXXXXXX--==++O   ",
"    .ooooooooXOOXXXXO   ",
"   .Xoooooooo+OOXXXXXOO ",
"   .ooooooo++OOOXXXXXOO ",
"   .ooooooo++OOOXXXXXOO ",
" OOOoooooooOO OOOOXXXOO ",
" OOOOOOOOOOOO  OOOOOOOO ",
" OO===OOO       OO***OO ",
"OOO***OO        OOOOOOOO",
"OOO***OO        OOOOOOOO",
"O----OOO        OO*====O"
};
