/* XPM */
static char *xpm_[] = {
/* columns rows colors chars-per-pixel */
"19 30 14 1 ",
"  c #141412",
". c #252716",
"X c #331E32",
"o c #373A20",
"O c #47280D",
"+ c #5F5625",
"@ c #1C3845",
"# c #5F2E5C",
"$ c #B56C30",
"% c #928230",
"& c #F09A53",
"* c #932D8B",
"= c #0C98D6",
"- c white",
/* pixels */
"-------.......-----",
"-----..+%%%%++ ----",
"----.+%%%%%%%%+ ---",
"--- ++%%%%%%%%%+ --",
"-- ooo+%%%+  +%% --",
"-- oooo+%     +% --",
"- ooooo%       % --",
"- oooo+%       % --",
" ooooo%   =  = + --",
" o+++o%X  @  @ + --",
"  o+++%X       o --",
"-   oo+X#X     X --",
"- oooo++###****# --",
"-.%%%oo+%##****#  -",
".%%%%%++%%%%++%%  -",
".%%%%%+++%%%%%%%  -",
".+%%%+ooo%%%%%%%  -",
"-.... ooo+%%%%%+ --",
"---   oooo      ---",
"----OO$O$$$&&$$ ---",
"----OO$O$$&&&&$ ---",
"---.+++++++&&$oo --",
"---.%%%%%%+  +++ --",
"--.+%%%%%%o  ++++ -",
"--.%%%%%%o   ++++ -",
"-  %%%%%% -   +++ -",
"-         --      -",
"- $$$  ------ OOO -",
"  OOO -------      ",
" &&&  ------- O$$$ "
};
