/* XPM */
static char *xpm_[] = {
/* columns rows colors chars-per-pixel */
"49 48 8 1 ",
"  c #141412",
". c #191C1E",
"X c #24282C",
"o c #2B3037",
"O c #343C45",
"+ c #394554",
"@ c #56687E",
"# c #607897",
/* pixels */
"                                                 ",
"                                                 ",
"                                                 ",
"                                                 ",
"                                                 ",
"                                                 ",
"............... ............... ............... .",
"............... ............... ............... .",
"............... ............... ............... .",
"............... ............... ............... .",
"                                                 ",
"###@@@@@@#@########@@@@@@#@########@@@@@@#@######",
"###@@@@@@#@########@@@@@@#@########@@@@@@#@######",
"+++OOOOOO+O++++++++OOOOOO+O++++++++OOOOOO+O+++++o",
"+++OOOOOO+O++++++++OOOOOO+O++++++++OOOOOO+O+++++o",
"ooooooooooooooooooooooooooooooooooooooooooooooooo",
"                                                 ",
" ...........XXXX.XXXXXXXXXXXXXXXXXXX...........  ",
" ...........XXXX.XXXXXXXXXXXXXXXXXXX...........  ",
"     ......................................      ",
"  XXXXXXo.OOOOOOOOoOooooo.OOOOOOOOOOOO.oXXXXXX   ",
"  ...XXXoXOOOOOOOOoOoooooXOOOOOOOOOOOOXoXXX...   ",
"  ...XXXoXOOOOOOOOoOoooooXOOOOOOOOOOOOXoXXX...   ",
"      ..XXXXXXXXXXXXXXXXXXXXXXXXXXXXXXXX..       ",
" ..XXoooOOOOOOOOo++++O+OOOOOOOOOOOOOOOOOoooXX..  ",
" ..XXoooOOOOOOOOo++++O+OOOOOOOOOOOOOOOOOoooXX..  ",
" ..XXoooOOOOOOOOX++++O+OOOOOOOOOOOOOOOOOoooXX..  ",
"      ..XXXXXXXXXXXXoooooooooXXXXXXXXXXX..       ",
"  ..oOOOOX+++++++++++++++o++++++++++++XOOOOo..   ",
"  ...ooooXOOOOOOOOOO+++++oOOOOOOOOOOOOXoooo...   ",
"  ...ooooXOOOOOOOOOO+++++XOOOOOOOOOOOOXoooo...   ",
"      ..XXXXXXXXXXXXXXXXXXXXXXXXXXXXXXXX..       ",
" .XXooooOOOOOOOOX+++++OOOOOOOOOOOOOOOOOOooooXX.  ",
" ...XXXXooooooooXOOoOoooooooooooooooooooXXXX...  ",
" ...XXXXoooooooo.OOoOoooooooooooooooooooXXXX...  ",
"      ....................................       ",
"  ...X.XX.ooooooooXoXXXXX.oooooooooooo.XX.X...   ",
"  ...X.XX.ooooooooXoXXXXX.oooooooooooo.XX.X...   ",
"  ...X.XX.ooooooooXoXXXXX.oooooooooooo.XX.X...   ",
"     ......................................      ",
"XXXXoXooOO++++++++++++++++++++++++++++OOooXoXXXX ",
"XXXXoXooOO++++++++++++++++++++++++++++OOooXoXXXX ",
"           ..........................            ",
"           ..........................            ",
"           ..........................            ",
"........++++++++++++++++++++++++++++++++........ ",
"         ..............................          ",
"         ..............................          "
};
